<svg width="196" height="55" viewBox="0 0 196 55" fill="none" xmlns="http://www.w3.org/2000/svg">
<path d="M7.79036 44.7758C7.81125 45.9975 8.86072 46.953 10.0825 46.953H21.4178C22.6396 46.953 23.6943 45.9975 23.7099 44.7758C23.7308 43.5383 22.7283 42.5254 21.4961 42.5254H9.99896C8.76674 42.5254 7.76948 43.5331 7.79036 44.7758Z" fill="#5E49FF"/>
<path d="M15.4912 37.6279C15.4912 38.8496 16.5355 39.8417 17.8199 39.8417H29.9019C31.1863 39.8417 32.2306 38.8496 32.2306 37.6279C32.2306 36.4061 31.1863 35.4141 29.9019 35.4141H17.8199C16.5303 35.4141 15.4912 36.4061 15.4912 37.6279Z" fill="#5E49FF"/>
<path d="M9.17896 11.4798H2.23992C1.00248 11.4798 0 10.4774 0 9.23992C0 8.00248 1.00248 7 2.23992 7H9.17896C10.4164 7 11.4189 8.00248 11.4189 9.23992C11.4136 10.4774 10.4164 11.4798 9.17896 11.4798Z" fill="#3BD42D"/>
<path d="M15.8723 18.5179H8.93327C7.69584 18.5179 6.69336 17.5154 6.69336 16.278C6.69336 15.0406 7.69584 14.0381 8.93327 14.0381H15.8723C17.1097 14.0381 18.1122 15.0406 18.1122 16.278C18.1122 17.5154 17.1097 18.5179 15.8723 18.5179Z" fill="#3BD42D"/>
<path d="M39.3946 18.5179H22.1541C20.9166 18.5179 19.9141 17.5154 19.9141 16.278C19.9141 15.0406 20.9166 14.0381 22.1541 14.0381H39.3946C40.6321 14.0381 41.6345 15.0406 41.6345 16.278C41.6293 17.5154 40.6321 18.5179 39.3946 18.5179Z" fill="#25CBD3"/>
<path d="M33.9483 25.6659H16.7077C15.4703 25.6659 14.4678 24.6634 14.4678 23.426C14.4678 22.1885 15.4703 21.186 16.7077 21.186H33.9483C35.1857 21.186 36.1882 22.1885 36.1882 23.426C36.183 24.6634 35.1805 25.6659 33.9483 25.6659Z" fill="#5E49FF"/>
<path d="M42.794 32.7772H25.5534C24.316 32.7772 23.3135 31.7747 23.3135 30.5373C23.3135 29.2999 24.316 28.2974 25.5534 28.2974H42.794C44.0314 28.2974 45.0339 29.2999 45.0339 30.5373C45.0339 31.7747 44.0314 32.7772 42.794 32.7772Z" fill="#25CBD3"/>
<path d="M25.5157 11.4798H15.6267C14.3892 11.4798 13.3867 10.4774 13.3867 9.23992C13.3867 8.00248 14.3892 7 15.6267 7H25.5157C26.7531 7 27.7556 8.00248 27.7556 9.23992C27.7556 10.4774 26.7531 11.4798 25.5157 11.4798Z" fill="#5E49FF"/>
<path d="M34.0156 11.4798H31.901C30.6635 11.4798 29.6611 10.4774 29.6611 9.23992C29.6611 8.00248 30.6635 7 31.901 7H34.0156C35.253 7 36.2555 8.00248 36.2555 9.23992C36.2555 10.4774 35.253 11.4798 34.0156 11.4798Z" fill="#25CBD3"/>
<path d="M42.585 25.6659H40.4704C39.233 25.6659 38.2305 24.6634 38.2305 23.426C38.2305 22.1885 39.233 21.186 40.4704 21.186H42.585C43.8224 21.186 44.8249 22.1885 44.8249 23.426C44.8249 24.6634 43.8224 25.6659 42.585 25.6659Z" fill="#25CBD3"/>
<path d="M39.394 39.8886H36.3396C35.1021 39.8886 34.0996 38.8861 34.0996 37.6487C34.0996 36.4112 35.1021 35.4087 36.3396 35.4087H39.394C40.6314 35.4087 41.6339 36.4112 41.6339 37.6487C41.6287 38.8861 40.6314 39.8886 39.394 39.8886Z" fill="#25CBD3"/>
<path d="M3.97337 46.9686H2.23992C1.00248 46.9686 0 45.9662 0 44.7287C0 43.4913 1.00248 42.4888 2.23992 42.4888H3.97337C5.21081 42.4888 6.21329 43.4913 6.21329 44.7287C6.21329 45.9662 5.21081 46.9686 3.97337 46.9686Z" fill="#3BD42D"/>
<path d="M34.0164 46.9998H27.8083C26.5709 46.9998 25.5684 45.9973 25.5684 44.7599C25.5684 43.5225 26.5709 42.52 27.8083 42.52H34.0164C35.2539 42.52 36.2563 43.5225 36.2563 44.7599C36.2563 45.9973 35.2539 46.9998 34.0164 46.9998Z" fill="#25CBD3"/>
<path d="M70.7175 41H74.0255V36.576H71.7139C69.4421 36.576 68.2066 35.2608 68.2066 32.8296V24.3404H73.8661V19.9962H68.366V14.536H63.424V17.844C63.424 19.2788 62.7464 19.9962 61.3515 19.9962H59.4384V24.3404H63.1051V33.3876C63.1051 38.0108 65.6957 41 70.7175 41ZM92.7529 19.9962V22.9853C91.1985 20.9527 88.8471 19.8368 85.8181 19.8368C79.7999 19.8368 75.4158 24.2209 75.4158 30.518C75.4158 36.7753 79.7999 41.4783 85.8181 41.4783C88.8471 41.4783 91.1985 40.2427 92.7529 38.1703V41H97.4558V19.9962H92.7529ZM86.4956 37.0145C83.0282 37.0145 80.4774 34.2644 80.4774 30.518C80.4774 26.7716 83.0282 24.0216 86.4956 24.0216C90.1224 24.0216 92.5935 26.652 92.5935 30.518C92.5935 34.3441 90.1224 37.0145 86.4956 37.0145ZM106.924 22.3476V19.9962H102.141V41H107.203V29.0434C107.203 26.2136 109.514 24.2607 113.181 24.2607V19.5179C110.551 19.5179 108.358 20.6737 106.924 22.3476ZM119.161 32.1122H135.461C135.541 31.6738 135.581 30.8767 135.581 30.0796C135.581 24.6991 131.556 19.5179 124.94 19.5179C118.921 19.5179 114.179 24.4201 114.179 30.518C114.179 36.7753 118.563 41.5181 125.258 41.5181C130.36 41.5181 133.15 39.3659 134.744 36.7753L130.759 34.2246C129.802 36.0978 128.287 37.1739 125.418 37.1739C122.269 37.1739 119.838 35.2608 119.161 32.1122ZM119.161 28.5651C119.798 25.3368 122.11 23.5035 125.059 23.5035C128.008 23.5035 130.161 25.4165 130.719 28.5651H119.161ZM149.052 15.3729H150.328V11.3874H148.853C143.313 11.3874 140.364 14.5758 140.364 19.7172V19.9962H136.936V24.3404H140.364V41H145.426V24.3404H150.248V19.9962H145.426V19.1991C145.426 16.8077 146.741 15.3729 149.052 15.3729ZM168.727 19.9962V22.9853C167.173 20.9527 164.822 19.8368 161.793 19.8368C155.774 19.8368 151.39 24.2209 151.39 30.518C151.39 36.7753 155.774 41.4783 161.793 41.4783C164.822 41.4783 167.173 40.2427 168.727 38.1703V41H173.43V19.9962H168.727ZM162.47 37.0145C159.003 37.0145 156.452 34.2644 156.452 30.518C156.452 26.7716 159.003 24.0216 162.47 24.0216C166.097 24.0216 168.568 26.652 168.568 30.518C168.568 34.3441 166.097 37.0145 162.47 37.0145ZM185.529 41.4783C190.79 41.4783 194.217 39.0072 194.217 34.8224C194.217 27.1303 182.699 29.3224 182.699 25.4962C182.699 24.2209 183.695 23.4237 185.568 23.4237C187.322 23.4237 188.558 24.181 189.116 25.7752L193.54 24.0614C192.663 21.1918 189.713 19.5179 185.648 19.5179C180.706 19.5179 177.518 21.9092 177.518 25.7354C177.518 32.9492 189.036 31.0361 189.036 35.1811C189.036 36.6558 187.761 37.4927 185.728 37.4927C183.177 37.4927 181.543 36.3369 180.945 34.384L176.521 36.0978C177.677 39.6449 180.985 41.4783 185.529 41.4783Z" fill="#1C0C3F"/>
</svg>
